HIERARCHY
ROOT Hips
{
	OFFSET	0.00	0.00	0.00
	CHANNELS 6 Xposition Yposition Zposition Zrotation Xrotation Yrotation
	JOINT LeftUpLeg
	{
		OFFSET	 0.126116	-0.014019	-0.065224
		CHANNELS 3 Zrotation Xrotation Yrotation
		JOINT LeftLeg
		{
			OFFSET	 0.000000	 0.000000	 0.569914
			CHANNELS 3 Zrotation Xrotation Yrotation
			JOINT LeftFoot
			{
				OFFSET	 0.000000	 0.000000	 0.544423
				CHANNELS 3 Zrotation Xrotation Yrotation
				JOINT LeftToeBase
				{
					OFFSET	 0.000000	 0.000000	 0.207117
					CHANNELS 3 Zrotation Xrotation Yrotation
					End Site
					{
						OFFSET	 0.000000	 0.000000	 0.207117
					}
				}
			}
		}
	}
	JOINT RightUpLeg
	{
		OFFSET	-0.124023	-0.008373	-0.065224
		CHANNELS 3 Zrotation Xrotation Yrotation
		JOINT RightLeg
		{
			OFFSET	 0.000000	 0.000000	 0.570047
			CHANNELS 3 Zrotation Xrotation Yrotation
			JOINT RightFoot
			{
				OFFSET	 0.000000	 0.000000	 0.544354
				CHANNELS 3 Zrotation Xrotation Yrotation
				JOINT RightToeBase
				{
					OFFSET	 0.000000	 0.000000	 0.207540
					CHANNELS 3 Zrotation Xrotation Yrotation
					End Site
					{
						OFFSET	 0.000000	 0.000000	 0.207540
					}
				}
			}
		}
	}
	JOINT Spine
	{
		OFFSET	 0.000184	-0.007763	 0.117403
		CHANNELS 3 Zrotation Xrotation Yrotation
		JOINT Spine1
		{
			OFFSET	 0.000000	 0.000000	 0.137269
			CHANNELS 3 Zrotation Xrotation Yrotation
			JOINT Spine2
			{
				OFFSET	 0.000000	 0.000000	 0.156879
				CHANNELS 3 Zrotation Xrotation Yrotation
				JOINT LeftShoulder
				{
					OFFSET	 0.080501	-0.002496	 0.160144
					CHANNELS 3 Zrotation Xrotation Yrotation
					JOINT LeftArm
					{
						OFFSET	 0.000000	 0.000000	 0.164363
						CHANNELS 3 Zrotation Xrotation Yrotation
						JOINT LeftForeArm
						{
							OFFSET	 0.000000	 0.000000	 0.364576
							CHANNELS 3 Zrotation Xrotation Yrotation
							JOINT LeftHand
							{
								OFFSET	 0.000000	 0.000000	 0.360812
								CHANNELS 3 Zrotation Xrotation Yrotation
								JOINT LeftHandIndex1
								{
									OFFSET	 0.000000	 0.000000	 0.086006
									CHANNELS 3 Zrotation Xrotation Yrotation
									JOINT LeftHandIndex2
									{
										OFFSET	 0.000000	 0.000000	 0.047236
										CHANNELS 3 Zrotation Xrotation Yrotation
										JOINT LeftHandIndex3
										{
											OFFSET	-0.004284	-0.000551	 0.038166
											CHANNELS 3 Zrotation Xrotation Yrotation
											End Site
											{
												OFFSET	-0.004284	-0.000551	 0.038166
											}
										}
									}
								}
							}
						}
					}
				}
				JOINT Neck
				{
					OFFSET	 0.000000	 0.000000	 0.176489
					CHANNELS 3 Zrotation Xrotation Yrotation
					JOINT Head
					{
						OFFSET	 0.000000	-0.001747	 0.077940
						CHANNELS 3 Zrotation Xrotation Yrotation
						End Site
						{
							OFFSET	 0.000000	-0.001747	 0.077940
						}
					}
				}
				JOINT RightShoulder
				{
					OFFSET	-0.080363	 0.000306	 0.159706
					CHANNELS 3 Zrotation Xrotation Yrotation
					JOINT RightArm
					{
						OFFSET	 0.000000	 0.000000	 0.164196
						CHANNELS 3 Zrotation Xrotation Yrotation
						JOINT RightForeArm
						{
							OFFSET	 0.000000	 0.000000	 0.365611
							CHANNELS 3 Zrotation Xrotation Yrotation
							JOINT RightHand
							{
								OFFSET	 0.000000	 0.000000	 0.360648
								CHANNELS 3 Zrotation Xrotation Yrotation
								JOINT RightHandIndex1
								{
									OFFSET	 0.000000	 0.000000	 0.069977
									CHANNELS 3 Zrotation Xrotation Yrotation
									JOINT RightHandIndex2
									{
										OFFSET	 0.000000	 0.000000	 0.052305
										CHANNELS 3 Zrotation Xrotation Yrotation
										JOINT RightHandIndex3
										{
											OFFSET	 0.009002	-0.000782	 0.042196
											CHANNELS 3 Zrotation Xrotation Yrotation
											End Site
											{
												OFFSET	 0.009002	-0.000782	 0.042196
											}
										}
									}
								}
							}
						}
					}
				}
			}
		}
	}
}
MOTION
Frames:    4
Frame Time: 0.03333334
-0.000635	 0.020183	 1.264406	 0.003052	-0.002056	-0.182102	 5.520910	-4.262840	 177.210500	 1.406433	-16.407700	-0.970632	-10.325780	 72.917190	 4.491444	-2.385833	 28.452760	 0.000004	-5.577867	-4.956506	-176.911600	-1.378615	-17.284330	 1.006841	 10.226700	 73.245400	-4.507420	 2.384658	 28.388730	 0.000004	 2.971872	 2.895630	-0.127539	 2.156717	 3.149621	 0.879990	-6.498223	-3.820387	-1.368503	-91.776220	 78.527430	-180.000000	 59.146950	 40.029790	-59.636750	-8.668287	 0.194768	-0.719481	-29.321050	 1.094407	-4.349980	-2.635965	 4.993658	 6.788941	-5.165319	 0.784187	 3.516649	-5.225038	 0.466231	 0.424329	-0.000002	-3.783157	-0.089647	-6.346761	 4.939738	 0.274026	 89.782100	 78.203920	 180.000000	-61.850040	 40.969220	 55.278970	 8.215268	 2.924757	 6.818686	 28.567520	 0.135895	 8.844141	 6.112037	 4.509576	-0.364401	 4.968462	 1.518543	-9.347576	 5.168945	 0.703820	 2.021906
-0.000627	 0.020424	 1.260804	 0.003307	-0.002381	-0.176565	 5.864591	-5.478521	 177.263500	 1.359481	-18.853600	-1.125609	-11.379210	 74.107860	 5.592390	-2.385833	 28.452760	 0.000004	-5.919978	-6.114282	-176.970100	-1.332440	-19.608420	 1.152738	 11.230670	 74.377750	-5.555130	 2.384658	 28.388730	 0.000004	 2.180952	 2.964708	-0.135916	 2.127734	 2.907759	 0.882725	-6.413593	-3.515782	-1.329461	-91.776160	 78.527450	 180.000000	 58.942680	 39.941300	-59.510370	-8.959984	 0.201080	-0.866916	-29.337900	 1.107474	-4.349638	-2.635965	 4.993658	 6.788941	-5.165319	 0.784187	 3.516649	-5.225038	 0.466231	 0.424329	-0.000002	-3.783157	-0.089647	-6.277489	 5.094895	 0.279554	 89.782070	 78.203890	-180.000000	-61.560600	 40.775640	 56.132170	 8.307405	 2.535633	 6.066209	 28.544540	 0.013120	 8.758744	 6.112037	 4.509576	-0.364401	 4.968462	 1.518543	-9.347576	 5.168945	 0.703820	 2.021906
-0.000617	 0.020896	 1.253841	 0.004259	-0.000954	-0.161352	 6.534180	-7.486681	 177.331300	 1.265031	-22.872970	-1.390643	-13.537840	 76.040820	 7.815583	-2.385833	 28.452760	 0.000004	-6.604202	-8.050823	-177.060800	-1.239619	-23.476100	 1.405391	 13.276370	 76.241740	-7.674284	 2.384658	 28.388730	 0.000004	 0.492139	 3.094065	-0.149278	 2.040117	 2.446234	 0.873965	-6.153944	-2.940932	-1.237509	-91.776190	 78.527470	-180.000000	 58.535100	 39.767800	-59.238410	-9.561470	 0.217145	-1.167705	-29.372730	 1.134627	-4.348932	-2.635965	 4.993658	 6.788941	-5.165319	 0.784187	 3.516649	-5.225038	 0.466231	 0.424329	-0.000002	-3.783157	-0.089647	-6.047095	 5.402040	 0.285531	 89.782110	 78.203920	 180.000000	-61.068410	 40.173860	 58.556650	 8.327728	 1.433239	 3.879520	 28.727900	-0.444816	 8.474101	 6.112037	 4.509576	-0.364401	 4.968462	 1.518543	-9.347576	 5.168945	 0.703820	 2.021906
-0.000601	 0.021379	 1.246760	 0.005235	 0.000744	-0.143401	 7.244864	-9.236156	 177.370800	 1.164023	-26.353010	-1.633065	-15.931990	 77.686810	 10.280230	-2.385833	 28.452760	 0.000004	-7.332019	-9.751444	-177.131200	-1.140491	-26.853520	 1.638406	 15.549060	 77.844870	-10.027030	 2.384658	 28.388730	 0.000004	-1.412522	 3.219744	-0.154747	 1.909262	 1.996046	 0.843398	-5.762117	-2.387909	-1.124404	-91.776180	 78.527470	-180.000000	 58.100880	 39.590940	-58.912480	-10.216410	 0.242853	-1.498041	-29.410930	 1.164352	-4.348109	-2.635965	 4.993658	 6.788941	-5.165319	 0.784187	 3.516649	-5.225038	 0.466231	 0.424329	-0.000002	-3.783157	-0.089647	-5.683051	 5.716096	 0.283936	 89.782150	 78.203900	 180.000000	-59.598690	 39.108070	 59.045360	 8.087636	 1.925375	 5.315035	 28.944690	-0.967053	 8.154715	 6.112037	 4.509576	-0.364401	 4.968462	 1.518543	-9.347576	 5.168945	 0.703820	 2.021906
